<svg xmlns="http://www.w3.org/2000/svg" width="33" height="33" fill="none"><path fill="#fff" d="M29.805 16.466c0 1.563-2.228 2.743-2.835 4.211-.585 1.415.177 3.831-.973 4.981s-3.566.388-4.981.973c-1.461.607-2.649 2.835-4.211 2.835-1.563 0-2.75-2.228-4.212-2.835-1.415-.585-3.83.177-4.98-.973-1.15-1.15-.388-3.566-.973-4.981-.608-1.461-2.835-2.649-2.835-4.211 0-1.563 2.227-2.75 2.835-4.212.585-1.413-.178-3.83.972-4.98 1.15-1.15 3.568-.388 4.981-.973 1.468-.608 2.65-2.835 4.212-2.835 1.562 0 2.75 2.227 4.21 2.835 1.416.585 3.832-.178 4.982.972 1.15 1.15.388 3.566.973 4.982.607 1.467 2.835 2.648 2.835 4.21z" opacity=".2"/><path fill="#fff" d="M29.037 13.318c-.471-.492-.959-1-1.142-1.446-.17-.409-.18-1.086-.19-1.742-.02-1.22-.04-2.603-1-3.564-.962-.962-2.344-.982-3.564-1-.656-.01-1.334-.02-1.743-.19-.445-.184-.953-.672-1.446-1.143-.862-.829-1.842-1.767-3.147-1.767-1.305 0-2.284.938-3.148 1.767-.492.471-1 .959-1.446 1.143-.406.17-1.086.18-1.743.19-1.22.018-2.602.038-3.563 1-.962.961-.975 2.343-1 3.564-.01.656-.02 1.333-.19 1.742-.184.445-.672.954-1.143 1.446-.829.863-1.767 1.843-1.767 3.148 0 1.305.938 2.284 1.767 3.147.471.493.959 1 1.143 1.447.17.408.18 1.086.19 1.742.018 1.22.038 2.602 1 3.564.96.961 2.343.981 3.563 1 .657.01 1.334.02 1.743.19.445.183.954.671 1.446 1.142.863.829 1.843 1.768 3.148 1.768 1.305 0 2.283-.939 3.147-1.768.493-.471 1-.959 1.446-1.142.41-.17 1.087-.18 1.743-.19 1.22-.019 2.602-.039 3.564-1 .96-.962.98-2.344 1-3.564.01-.656.02-1.334.19-1.742.183-.445.67-.954 1.142-1.447.829-.862 1.768-1.842 1.768-3.147 0-1.305-.94-2.284-1.768-3.148zm-1.444 4.912c-.598.625-1.218 1.27-1.547 2.064-.315.763-.329 1.634-.341 2.478-.013.875-.027 1.791-.415 2.179-.39.387-1.3.402-2.18.415-.843.012-1.714.026-2.477.341-.793.329-1.44.949-2.065 1.547-.625.6-1.263 1.212-1.763 1.212s-1.144-.615-1.764-1.212c-.62-.596-1.271-1.218-2.065-1.547-.763-.315-1.634-.329-2.478-.341-.875-.013-1.79-.026-2.178-.415-.388-.389-.403-1.299-.415-2.179-.013-.844-.027-1.715-.342-2.477-.328-.794-.948-1.44-1.547-2.066-.599-.624-1.211-1.263-1.211-1.763s.615-1.144 1.21-1.764c.597-.62 1.22-1.271 1.548-2.065.315-.763.33-1.634.342-2.478.012-.875.026-1.79.415-2.178.388-.388 1.298-.403 2.178-.415.844-.013 1.715-.027 2.478-.342.794-.328 1.44-.948 2.065-1.547s1.264-1.211 1.764-1.211 1.143.615 1.763 1.211c.62.596 1.272 1.219 2.065 1.547.763.315 1.634.33 2.478.342.875.012 1.791.026 2.179.415.387.388.402 1.298.415 2.178.012.844.026 1.715.34 2.478.33.794.95 1.44 1.548 2.065.6.625 1.212 1.264 1.212 1.764s-.615 1.143-1.212 1.764zm-5.08-5.472a1.001 1.001 0 0 1 0 1.415l-7 7a1.001 1.001 0 0 1-1.416 0l-3-3a1 1 0 1 1 1.415-1.415l2.293 2.294 6.292-6.294a1 1 0 0 1 1.415 0z"/></svg>